<svg width="1080" height="1080" viewBox="0 0 1080 1080" fill="none" xmlns="http://www.w3.org/2000/svg">
<rect width="1080" height="1080" fill="white"/>
<path d="M152.55 659H114.11V432.39H152.55L225.71 612.81L298.87 432.39H337.93V659H299.49V589.25C299.49 543.68 299.49 530.35 301.66 514.23L244 659H207.42L150.07 514.54C152.24 528.18 152.55 549.57 152.55 577.78V659ZM382.815 659H341.585L423.425 432.39H464.035L545.875 659H504.025L485.735 606.61H401.105L382.815 659ZM438.615 499.97L412.885 573.13H474.265L448.225 499.97C446.365 494.08 444.195 487.26 443.575 482.61C442.645 486.95 440.785 493.77 438.615 499.97ZM589.17 432.39V551.43L680.93 432.39H727.74L652.72 529.11L728.67 659H682.79L626.68 562.59L589.17 610.64V659H549.49V432.39H589.17ZM732.027 576.23V432.39H771.707V573.75C771.707 606.3 789.377 624.28 821.617 624.28C853.857 624.28 871.837 605.99 871.837 573.75V432.39H911.517V576.23C911.517 629.24 876.797 662.72 821.617 662.72C766.747 662.72 732.027 629.55 732.027 576.23ZM943.861 662.72C930.221 662.72 918.751 651.56 918.751 638.23C918.751 624.59 930.221 613.43 943.861 613.43C957.501 613.43 968.971 624.59 968.971 638.23C968.971 651.56 957.501 662.72 943.861 662.72Z" fill="#2F2F2F"/>
</svg>
